<svg width="24" height="24" viewBox="0 0 24 24" xmlns="http://www.w3.org/2000/svg">
  <style>
    .pixel { shape-rendering: crispEdges; }
    .neon-green { fill: #00ff00; }
  </style>
  <g class="pixel">
    <rect class="neon-green" x="8" y="2" width="8" height="2"/>
    <rect class="neon-green" x="6" y="4" width="12" height="2"/>
    <rect class="neon-green" x="6" y="6" width="2" height="2"/>
    <rect class="neon-green" x="16" y="6" width="2" height="2"/>
    <rect class="neon-green" x="8" y="8" width="8" height="2"/>
    <rect class="neon-green" x="10" y="10" width="4" height="2"/>
    <rect class="neon-green" x="10" y="12" width="4" height="8"/>
    
    <rect class="neon-green" x="2" y="2" width="2" height="2"/>
    <rect class="neon-green" x="20" y="2" width="2" height="2"/>
    <rect class="neon-green" x="2" y="20" width="2" height="2"/>
    <rect class="neon-green" x="20" y="20" width="2" height="2"/>
    <rect class="neon-green" x="4" y="4" width="2" height="2"/>
    <rect class="neon-green" x="18" y="4" width="2" height="2"/>
    <rect class="neon-green" x="4" y="18" width="2" height="2"/>
    <rect class="neon-green" x="18" y="18" width="2" height="2"/>
  </g>
</svg>
