<?xml version="1.0" encoding="UTF-8" standalone="no"?>
<svg width="64" height="64" viewBox="0 0 64 64" xmlns="http://www.w3.org/2000/svg">
  <defs>
    <linearGradient id="heartGradient" x1="0%" y1="0%" x2="100%" y2="100%">
      <stop offset="0%" stop-color="#ff00ff" />
      <stop offset="100%" stop-color="#ff0066" />
    </linearGradient>
  </defs>
  
  <!-- Pixelated Heart -->
  <g fill="url(#heartGradient)">
    <!-- Row 1 -->
    <rect x="16" y="8" width="8" height="8" />
    <rect x="24" y="8" width="8" height="8" />
    <rect x="40" y="8" width="8" height="8" />
    <rect x="48" y="8" width="8" height="8" />
    
    <!-- Row 2 -->
    <rect x="8" y="16" width="8" height="8" />
    <rect x="16" y="16" width="8" height="8" />
    <rect x="24" y="16" width="8" height="8" />
    <rect x="32" y="16" width="8" height="8" />
    <rect x="40" y="16" width="8" height="8" />
    <rect x="48" y="16" width="8" height="8" />
    <rect x="56" y="16" width="8" height="8" />
    
    <!-- Row 3 -->
    <rect x="8" y="24" width="8" height="8" />
    <rect x="16" y="24" width="8" height="8" />
    <rect x="24" y="24" width="8" height="8" />
    <rect x="32" y="24" width="8" height="8" />
    <rect x="40" y="24" width="8" height="8" />
    <rect x="48" y="24" width="8" height="8" />
    <rect x="56" y="24" width="8" height="8" />
    
    <!-- Row 4 -->
    <rect x="16" y="32" width="8" height="8" />
    <rect x="24" y="32" width="8" height="8" />
    <rect x="32" y="32" width="8" height="8" />
    <rect x="40" y="32" width="8" height="8" />
    <rect x="48" y="32" width="8" height="8" />
    
    <!-- Row 5 -->
    <rect x="24" y="40" width="8" height="8" />
    <rect x="32" y="40" width="8" height="8" />
    <rect x="40" y="40" width="8" height="8" />
    
    <!-- Row 6 -->
    <rect x="32" y="48" width="8" height="8" />
  </g>
  
  <!-- Glow effect -->
  <g fill="url(#heartGradient)" opacity="0.5">
    <animate attributeName="opacity" values="0.3;0.6;0.3" dur="2s" repeatCount="indefinite" />
    
    <!-- Row 1 glow -->
    <rect x="16" y="8" width="8" height="8" />
    <rect x="24" y="8" width="8" height="8" />
    <rect x="40" y="8" width="8" height="8" />
    <rect x="48" y="8" width="8" height="8" />
    
    <!-- Row 2 glow -->
    <rect x="8" y="16" width="8" height="8" />
    <rect x="56" y="16" width="8" height="8" />
    
    <!-- Row 6 glow -->
    <rect x="32" y="48" width="8" height="8" />
  </g>
</svg>
