<?xml version="1.0" encoding="UTF-8" standalone="no"?>
<svg width="800" height="600" viewBox="0 0 800 600" xmlns="http://www.w3.org/2000/svg">
  <defs>
    <linearGradient id="skyGradient" x1="0%" y1="0%" x2="0%" y2="100%">
      <stop offset="0%" stop-color="#000033" />
      <stop offset="100%" stop-color="#660066" />
    </linearGradient>
    <linearGradient id="gridGradient" x1="0%" y1="0%" x2="0%" y2="100%">
      <stop offset="0%" stop-color="#ff00ff" stop-opacity="0.8" />
      <stop offset="100%" stop-color="#00ffff" stop-opacity="0.8" />
    </linearGradient>
  </defs>
  
  <!-- Background -->
  <rect width="800" height="600" fill="url(#skyGradient)" />
  
  <!-- Sun/Moon -->
  <circle cx="400" cy="150" r="80" fill="#ff00ff" opacity="0.8">
    <animate attributeName="opacity" values="0.8;0.9;0.8" dur="4s" repeatCount="indefinite" />
  </circle>
  
  <!-- Grid lines -->
  <g transform="translate(0, 300) scale(1, 0.5) rotate(-60, 400, 0)">
    <!-- Horizontal lines -->
    <g stroke="url(#gridGradient)" stroke-width="2">
      <line x1="0" y1="0" x2="800" y2="0" />
      <line x1="0" y1="50" x2="800" y2="50" />
      <line x1="0" y1="100" x2="800" y2="100" />
      <line x1="0" y1="150" x2="800" y2="150" />
      <line x1="0" y1="200" x2="800" y2="200" />
      <line x1="0" y1="250" x2="800" y2="250" />
      <line x1="0" y1="300" x2="800" y2="300" />
      <line x1="0" y1="350" x2="800" y2="350" />
      <line x1="0" y1="400" x2="800" y2="400" />
      <line x1="0" y1="450" x2="800" y2="450" />
      <line x1="0" y1="500" x2="800" y2="500" />
      <line x1="0" y1="550" x2="800" y2="550" />
      <line x1="0" y1="600" x2="800" y2="600" />
    </g>
    
    <!-- Vertical lines -->
    <g stroke="url(#gridGradient)" stroke-width="2">
      <line x1="0" y1="0" x2="0" y2="600" />
      <line x1="50" y1="0" x2="50" y2="600" />
      <line x1="100" y1="0" x2="100" y2="600" />
      <line x1="150" y1="0" x2="150" y2="600" />
      <line x1="200" y1="0" x2="200" y2="600" />
      <line x1="250" y1="0" x2="250" y2="600" />
      <line x1="300" y1="0" x2="300" y2="600" />
      <line x1="350" y1="0" x2="350" y2="600" />
      <line x1="400" y1="0" x2="400" y2="600" />
      <line x1="450" y1="0" x2="450" y2="600" />
      <line x1="500" y1="0" x2="500" y2="600" />
      <line x1="550" y1="0" x2="550" y2="600" />
      <line x1="600" y1="0" x2="600" y2="600" />
      <line x1="650" y1="0" x2="650" y2="600" />
      <line x1="700" y1="0" x2="700" y2="600" />
      <line x1="750" y1="0" x2="750" y2="600" />
      <line x1="800" y1="0" x2="800" y2="600" />
    </g>
  </g>
  
  <!-- Mountains -->
  <path d="M0,600 L200,400 L300,500 L400,350 L500,450 L600,380 L800,600 Z" fill="#330033" opacity="0.7" />
</svg>
