<svg width="100%" height="100%" viewBox="0 0 32 32" xmlns="http://www.w3.org/2000/svg" preserveAspectRatio="xMidYMid meet">
  <!-- Background with gradient -->
  <defs>
    <linearGradient id="gamingGradient" x1="0%" y1="0%" x2="100%" y2="100%">
      <stop offset="0%" stop-color="#000066" />
      <stop offset="100%" stop-color="#330066" />
    </linearGradient>
    <radialGradient id="buttonGlow" cx="50%" cy="50%" r="50%" fx="50%" fy="50%">
      <stop offset="0%" stop-color="#ff00ff" stop-opacity="1" />
      <stop offset="100%" stop-color="#ff00ff" stop-opacity="0" />
    </radialGradient>
  </defs>
  <rect x="0" y="0" width="32" height="32" fill="url(#gamingGradient)"/>
  
  <!-- Game controller body -->
  <rect x="8" y="12" width="16" height="8" fill="#222222" rx="2" ry="2"/>
  <rect x="6" y="14" width="2" height="4" fill="#222222" rx="1" ry="1"/>
  <rect x="24" y="14" width="2" height="4" fill="#222222" rx="1" ry="1"/>
  
  <!-- Controller highlights -->
  <rect x="8" y="12" width="16" height="1" fill="#444444" rx="1" ry="1"/>
  <rect x="8" y="19" width="16" height="1" fill="#111111" rx="1" ry="1"/>
  
  <!-- D-pad -->
  <rect x="9" y="15" width="5" height="1" fill="#00ffff"/>
  <rect x="11" y="13" width="1" height="5" fill="#00ffff"/>
  <rect x="9" y="15" width="1" height="1" fill="#00aaff"/>
  <rect x="13" y="15" width="1" height="1" fill="#00aaff"/>
  <rect x="11" y="13" width="1" height="1" fill="#00aaff"/>
  <rect x="11" y="17" width="1" height="1" fill="#00aaff"/>
  
  <!-- Buttons with glow effect -->
  <circle cx="20" cy="15" r="2" fill="#ff0000"/>
  <circle cx="20" cy="15" r="3" fill="url(#buttonGlow)" opacity="0.5"/>
  
  <circle cx="23" cy="15" r="2" fill="#00ff00"/>
  <circle cx="23" cy="15" r="3" fill="url(#buttonGlow)" opacity="0.5"/>
  
  <circle cx="20" cy="18" r="2" fill="#ffff00"/>
  <circle cx="20" cy="18" r="3" fill="url(#buttonGlow)" opacity="0.5"/>
  
  <circle cx="23" cy="18" r="2" fill="#0000ff"/>
  <circle cx="23" cy="18" r="3" fill="url(#buttonGlow)" opacity="0.5"/>
  
  <!-- Pixel art game character on screen -->
  <rect x="2" y="2" width="8" height="8" fill="#000000"/>
  <rect x="3" y="3" width="6" height="6" fill="#0000aa"/>
  <rect x="4" y="4" width="1" height="1" fill="#ffffff"/>
  <rect x="6" y="4" width="1" height="1" fill="#ffffff"/>
  <rect x="5" y="6" width="1" height="1" fill="#ff0000"/>
</svg>
