<svg width="100%" height="100%" viewBox="0 0 32 32" xmlns="http://www.w3.org/2000/svg" preserveAspectRatio="xMidYMid meet">
  <!-- Background with gradient -->
  <defs>
    <linearGradient id="movieGradient" x1="0%" y1="0%" x2="100%" y2="100%">
      <stop offset="0%" stop-color="#000033" />
      <stop offset="100%" stop-color="#330033" />
    </linearGradient>
  </defs>
  <rect x="0" y="0" width="32" height="32" fill="url(#movieGradient)"/>
  
  <!-- Film reel -->
  <rect x="6" y="6" width="20" height="20" fill="#222222"/>
  <rect x="8" y="8" width="16" height="16" fill="#111111"/>
  
  <!-- Film sprocket holes -->
  <rect x="4" y="8" width="2" height="2" fill="#ff00ff"/>
  <rect x="4" y="13" width="2" height="2" fill="#00ffff"/>
  <rect x="4" y="18" width="2" height="2" fill="#ff00ff"/>
  <rect x="4" y="23" width="2" height="2" fill="#00ffff"/>
  <rect x="26" y="8" width="2" height="2" fill="#00ffff"/>
  <rect x="26" y="13" width="2" height="2" fill="#ff00ff"/>
  <rect x="26" y="18" width="2" height="2" fill="#00ffff"/>
  <rect x="26" y="23" width="2" height="2" fill="#ff00ff"/>
  
  <!-- Film strip -->
  <rect x="2" y="6" width="28" height="2" fill="#ff00ff"/>
  <rect x="2" y="24" width="28" height="2" fill="#00ffff"/>
  
  <!-- Movie screen content -->
  <rect x="10" y="10" width="12" height="8" fill="#ffffff"/>
  <rect x="12" y="12" width="2" height="2" fill="#ff0000"/>
  <rect x="18" y="12" width="2" height="2" fill="#0000ff"/>
  <rect x="14" y="16" width="4" height="1" fill="#000000"/>
  
  <!-- Popcorn -->
  <rect x="14" y="20" width="4" height="2" fill="#ffcc00"/>
  <rect x="13" y="19" width="6" height="1" fill="#ffffff"/>
  <rect x="12" y="18" width="8" height="1" fill="#ffffff"/>
</svg>
